<svg width="33" height="33" viewBox="0 0 33 33" fill="none" xmlns="http://www.w3.org/2000/svg">
<path d="M12.595 14.9463C12.4575 14.9325 12.2925 14.9325 12.1413 14.9463C8.86877 14.8363 6.27002 12.155 6.27002 8.855C6.27002 5.48625 8.99252 2.75 12.375 2.75C15.7438 2.75 18.48 5.48625 18.48 8.855C18.4663 12.155 15.8675 14.8363 12.595 14.9463Z" stroke="#777879" stroke-width="2" stroke-linecap="round" stroke-linejoin="round"/>
<path d="M22.5637 5.5C25.2312 5.5 27.3762 7.65875 27.3762 10.3125C27.3762 12.9113 25.3137 15.0288 22.7425 15.125C22.6325 15.1113 22.5087 15.1113 22.385 15.125" stroke="#777879" stroke-width="2" stroke-linecap="round" stroke-linejoin="round"/>
<path d="M5.71999 20.02C2.39249 22.2475 2.39249 25.8775 5.71999 28.0912C9.50124 30.6212 15.7025 30.6212 19.4837 28.0912C22.8112 25.8637 22.8112 22.2338 19.4837 20.02C15.7162 17.5038 9.51499 17.5038 5.71999 20.02Z" stroke="#777879" stroke-width="2" stroke-linecap="round" stroke-linejoin="round"/>
<path d="M25.2175 27.5C26.2075 27.2937 27.1425 26.895 27.9125 26.3037C30.0575 24.695 30.0575 22.0412 27.9125 20.4325C27.1563 19.855 26.235 19.47 25.2588 19.25" stroke="#777879" stroke-width="2" stroke-linecap="round" stroke-linejoin="round"/>
</svg>
