<svg width="38" height="38" viewBox="0 0 38 38" fill="none" xmlns="http://www.w3.org/2000/svg">
<circle cx="19" cy="19" r="19" fill="#3E4096" fill-opacity="0.16"/>
<path d="M18.1418 9.86105C18.1418 10.4691 18.1418 11.073 18.1418 11.681C18.1418 13.1369 18.1418 14.5929 18.1418 16.0488C18.1418 17.8026 18.1418 19.5563 18.1418 21.3142C18.1418 22.8363 18.1418 24.3626 18.1418 25.8847C18.1418 26.6251 18.1211 27.3696 18.1418 28.1059C18.1418 28.1183 18.1418 28.1265 18.1418 28.139C18.1418 28.5898 18.5389 29.02 19.0021 28.9993C19.4695 28.9786 19.8625 28.6188 19.8625 28.139C19.8625 27.5309 19.8625 26.927 19.8625 26.319C19.8625 24.8631 19.8625 23.4071 19.8625 21.9512C19.8625 20.1974 19.8625 18.4437 19.8625 16.6858C19.8625 15.1637 19.8625 13.6374 19.8625 12.1153C19.8625 11.3749 19.8831 10.6304 19.8625 9.89414C19.8625 9.88173 19.8625 9.87346 19.8625 9.86105C19.8625 9.4102 19.4654 8.98004 19.0021 9.00072C18.5347 9.0214 18.1418 9.38125 18.1418 9.86105Z" fill="#3E4096"/>
<path d="M9.86105 19.8622C10.4691 19.8622 11.073 19.8622 11.681 19.8622C13.1369 19.8622 14.5929 19.8622 16.0488 19.8622C17.8026 19.8622 19.5563 19.8622 21.3142 19.8622C22.8363 19.8622 24.3626 19.8622 25.8847 19.8622C26.6251 19.8622 27.3696 19.8829 28.1059 19.8622C28.1183 19.8622 28.1265 19.8622 28.139 19.8622C28.5898 19.8622 29.02 19.4651 28.9993 19.0018C28.9786 18.5345 28.6188 18.1415 28.139 18.1415C27.5309 18.1415 26.927 18.1415 26.319 18.1415C24.8631 18.1415 23.4071 18.1415 21.9512 18.1415C20.1974 18.1415 18.4437 18.1415 16.6858 18.1415C15.1637 18.1415 13.6374 18.1415 12.1153 18.1415C11.3749 18.1415 10.6304 18.1208 9.89414 18.1415C9.88173 18.1415 9.87346 18.1415 9.86105 18.1415C9.4102 18.1415 8.98004 18.5386 9.00072 19.0018C9.0214 19.4692 9.38125 19.8622 9.86105 19.8622Z" fill="#3E4096"/>
</svg>
