<svg width="17" height="17" viewBox="0 0 17 17" fill="none" xmlns="http://www.w3.org/2000/svg">
<path fill-rule="evenodd" clip-rule="evenodd" d="M12.2239 11.2005L16.7864 15.7629C17.0697 16.0463 17.0723 16.5032 16.7876 16.7879C16.5049 17.0705 16.0462 17.0701 15.7627 16.7866L11.2002 12.2241C10.019 13.1804 8.51466 13.7532 6.8765 13.7532C3.07871 13.7532 0 10.6745 0 6.87674C0 3.07896 3.07871 0.000244141 6.8765 0.000244141C10.6743 0.000244141 13.753 3.07896 13.753 6.87674C13.753 8.5149 13.1802 10.0193 12.2239 11.2005ZM6.8765 12.3056C9.87475 12.3056 12.3053 9.87499 12.3053 6.87674C12.3053 3.87849 9.87475 1.44793 6.8765 1.44793C3.87825 1.44793 1.44768 3.87849 1.44768 6.87674C1.44768 9.87499 3.87825 12.3056 6.8765 12.3056Z" fill="black"/>
</svg>
