<svg width="95" height="29" viewBox="0 0 95 29" fill="none" xmlns="http://www.w3.org/2000/svg">
<path d="M23.3388 0H5.31849C2.38078 0 0 2.38078 0 5.31849V23.3388C0 26.2765 2.38078 28.6573 5.31849 28.6573H23.3388C26.2765 28.6573 28.6573 26.2765 28.6573 23.3388V5.31849C28.6573 2.38078 26.2765 0 23.3388 0ZM6.53494 5.75491C6.66195 5.7028 6.802 5.67511 6.94856 5.67511L18.1783 5.67349C18.7955 5.67512 19.297 6.17505 19.297 6.79223V7.01695C19.297 7.63576 18.7955 8.13732 18.1783 8.13569L6.94856 8.13732C6.80363 8.13732 6.66358 8.10964 6.53494 8.05753V5.75491ZM6.53494 13.2783C6.66358 13.2278 6.80363 13.1985 6.94856 13.1985H18.1799C18.7955 13.1985 19.297 13.7001 19.297 14.3156V14.5436C19.297 15.1592 18.7955 15.6607 18.1799 15.6607H6.94856C6.802 15.6607 6.66195 15.6314 6.53494 15.5793V13.2783ZM18.1799 22.9838H6.94856C6.802 22.9838 6.66195 22.9545 6.53494 22.9024V20.6014C6.66358 20.5509 6.80363 20.5216 6.94856 20.5216H18.1799C18.7955 20.5216 19.297 21.0232 19.297 21.6387V21.8667C19.297 22.4823 18.7955 22.9838 18.1799 22.9838ZM21.7641 18.9795C21.541 19.2026 21.2332 19.341 20.8929 19.341L7.0251 19.3426C6.85086 19.3426 6.68475 19.3052 6.53494 19.2384V16.983C6.68638 16.9179 6.85086 16.882 7.0251 16.882L20.8929 16.8804C21.5736 16.8804 22.124 17.4308 22.124 18.1115C22.124 18.4502 21.9856 18.7564 21.7641 18.9795ZM21.7641 11.6564C21.541 11.8795 21.2332 12.0179 20.8929 12.0179L7.0251 12.0163C6.85086 12.0163 6.68312 11.9804 6.53494 11.9137V9.65503C6.68475 9.59152 6.85086 9.55244 7.0251 9.55244L20.8929 9.55406C21.5736 9.55406 22.124 10.1045 22.124 10.7852C22.124 11.1271 21.9856 11.4333 21.7641 11.6564Z" fill="#FFCC29"/>
<path d="M51.5419 17.5324C51.5419 18.6495 51.3774 19.6543 51.0501 20.5499C50.7228 21.4456 50.2522 22.2109 49.6415 22.8493C49.0309 23.4876 48.2899 23.9745 47.422 24.3116C46.554 24.6487 45.5704 24.8165 44.4712 24.8165C43.4079 24.8165 42.3933 24.7367 41.4277 24.5771C40.462 24.4175 39.6608 24.24 39.0225 24.0462V4.37462L42.2386 3.84375V11.0464C42.6099 10.8509 43.0659 10.6751 43.6081 10.5155C44.1488 10.3559 44.7464 10.2761 45.4027 10.2761C46.3765 10.2761 47.2493 10.4487 48.0212 10.7939C48.7915 11.1392 49.4347 11.631 49.9477 12.2693C50.4606 12.9077 50.8547 13.673 51.1299 14.5687C51.4051 15.4627 51.5419 16.4511 51.5419 17.5324ZM48.246 17.4787C48.246 16.1141 47.9756 15.0328 47.435 14.2365C46.8943 13.4385 46.0394 13.0412 44.8702 13.0412C44.3377 13.0412 43.8378 13.121 43.3688 13.2806C42.8998 13.4402 42.522 13.6177 42.2386 13.8114V21.812C42.4682 21.8657 42.7662 21.9146 43.1294 21.9585C43.4925 22.0025 43.9306 22.0253 44.4452 22.0253C45.6323 22.0253 46.5621 21.6231 47.2363 20.8154C47.9089 20.0093 48.246 18.8971 48.246 17.4787Z" fill="#3E4096"/>
<path d="M57.1239 6.50298C57.1239 7.1055 56.9285 7.58426 56.5393 7.93763C56.1501 8.29263 55.6893 8.46851 55.1568 8.46851C54.608 8.46851 54.1374 8.291 53.7482 7.93763C53.3574 7.58263 53.1636 7.1055 53.1636 6.50298C53.1636 5.88254 53.359 5.39564 53.7482 5.04064C54.1374 4.68564 54.608 4.50977 55.1568 4.50977C55.6877 4.50977 56.1485 4.68727 56.5393 5.04064C56.9285 5.39564 57.1239 5.88254 57.1239 6.50298ZM56.7771 24.4712H53.5609V10.5692H56.7771V24.4712Z" fill="#3E4096"/>
<path d="M64.3787 24.7354C63.4211 24.7174 62.6281 24.6116 61.9995 24.4162C61.3709 24.2208 60.8694 23.9423 60.4981 23.5792C60.1268 23.216 59.8646 22.7649 59.7132 22.2243C59.5617 21.6836 59.4868 21.0681 59.4868 20.3776V4.37658L62.703 3.8457V19.767C62.703 20.1578 62.7339 20.4851 62.7958 20.7506C62.8577 21.016 62.9684 21.2423 63.128 21.428C63.2876 21.6136 63.5042 21.7569 63.7794 21.853C64.0546 21.9507 64.4047 22.0256 64.8297 22.0794L64.3787 24.7354Z" fill="#3E4096"/>
<path d="M70.9446 24.7354C69.987 24.7174 69.194 24.6116 68.5654 24.4162C67.9368 24.2208 67.4353 23.9423 67.064 23.5792C66.6927 23.216 66.4305 22.7649 66.2791 22.2243C66.1276 21.6836 66.0527 21.0681 66.0527 20.3776V4.37658L69.2689 3.8457V19.767C69.2689 20.1578 69.2998 20.4851 69.3617 20.7506C69.4236 21.016 69.5343 21.2423 69.6939 21.428C69.8535 21.6136 70.0701 21.7569 70.3453 21.853C70.6205 21.9507 70.9706 22.0256 71.3957 22.0794L70.9446 24.7354Z" fill="#3E4096"/>
<path d="M71.9009 17.5845C71.9009 16.3616 72.0833 15.29 72.4464 14.3683C72.8095 13.4466 73.2932 12.6813 73.8957 12.069C74.4982 11.4583 75.1887 10.9975 75.9687 10.6864C76.7487 10.377 77.5451 10.2207 78.3609 10.2207C80.2743 10.2207 81.7676 10.8151 82.8391 12.0022C83.9106 13.1894 84.448 14.9611 84.448 17.3174C84.448 17.4949 84.4431 17.6936 84.435 17.9151C84.4252 18.1366 84.4122 18.3369 84.3943 18.5127H75.2245C75.3125 19.6298 75.7065 20.4929 76.4068 21.1036C77.107 21.7142 78.1215 22.0204 79.4503 22.0204C80.2304 22.0204 80.9436 21.9504 81.5901 21.8071C82.2366 21.6654 82.7463 21.5139 83.1192 21.356L83.5442 23.9875C83.3667 24.0771 83.1225 24.1699 82.8131 24.266C82.5037 24.3637 82.1487 24.4517 81.7497 24.5314C81.3507 24.6112 80.9208 24.678 80.46 24.7301C79.9991 24.7839 79.5301 24.8099 79.0514 24.8099C77.8284 24.8099 76.765 24.6275 75.8612 24.2644C74.9575 23.9012 74.2133 23.3964 73.6287 22.7499C73.044 22.1034 72.6092 21.3413 72.3259 20.4636C72.0426 19.5924 71.9009 18.6316 71.9009 17.5845ZM81.2302 16.1499C81.2302 15.7069 81.1683 15.2868 81.0446 14.8878C80.9208 14.4888 80.7384 14.1436 80.499 13.8505C80.2597 13.5574 79.9682 13.3278 79.6213 13.16C79.2761 12.9923 78.8641 12.9076 78.3853 12.9076C77.8886 12.9076 77.4555 13.0004 77.0826 13.1861C76.7113 13.3717 76.3954 13.616 76.1397 13.9173C75.8824 14.2185 75.6837 14.5638 75.5421 14.9546C75.4004 15.3438 75.3027 15.7427 75.249 16.1499H81.2302Z" fill="#3E4096"/>
<path d="M94.4412 13.4655C94.1758 13.3776 93.8078 13.2848 93.3388 13.187C92.8698 13.0893 92.3243 13.0405 91.7038 13.0405C91.3488 13.0405 90.9727 13.0763 90.5737 13.1463C90.1747 13.218 89.8963 13.2799 89.7367 13.332V24.4689H86.5205V11.2329C87.1409 11.0033 87.9161 10.7851 88.8459 10.5815C89.7758 10.378 90.8082 10.2754 91.9432 10.2754C92.1565 10.2754 92.4041 10.2884 92.6874 10.3145C92.9708 10.3405 93.2541 10.3764 93.5375 10.4203C93.8208 10.4643 94.096 10.518 94.3615 10.5799C94.6269 10.6418 94.8402 10.6988 94.9998 10.7525L94.4412 13.4655Z" fill="#3E4096"/>
</svg>
