<svg width="36" height="36" viewBox="0 0 36 36" fill="none" xmlns="http://www.w3.org/2000/svg">
<path d="M25.5 15H28.5C31.5 15 33 13.5 33 10.5V7.5C33 4.5 31.5 3 28.5 3H25.5C22.5 3 21 4.5 21 7.5V10.5C21 13.5 22.5 15 25.5 15Z" stroke="#777879" stroke-width="2" stroke-miterlimit="10" stroke-linecap="round" stroke-linejoin="round"/>
<path d="M7.50001 33H10.5C13.5 33 15 31.5 15 28.5V25.5C15 22.5 13.5 21 10.5 21H7.50001C4.50001 21 3.00001 22.5 3.00001 25.5V28.5C3.00001 31.5 4.50001 33 7.50001 33Z" stroke="#777879" stroke-width="2" stroke-miterlimit="10" stroke-linecap="round" stroke-linejoin="round"/>
<path d="M9.00001 15C12.3137 15 15 12.3137 15 9C15 5.68629 12.3137 3 9.00001 3C5.6863 3 3.00001 5.68629 3.00001 9C3.00001 12.3137 5.6863 15 9.00001 15Z" stroke="#777879" stroke-width="2" stroke-miterlimit="10" stroke-linecap="round" stroke-linejoin="round"/>
<path d="M27 33C30.3137 33 33 30.3137 33 27C33 23.6863 30.3137 21 27 21C23.6863 21 21 23.6863 21 27C21 30.3137 23.6863 33 27 33Z" stroke="#777879" stroke-width="2" stroke-miterlimit="10" stroke-linecap="round" stroke-linejoin="round"/>
</svg>
